# xmcd
#
# Track frame offsets: 
#        150
#        13098
#        26114
#        40521
#        55798
#        70013
#        76558
#        84943
#        98817
#        114130
#        129916
#        138378
#        155633
#        173606
#        188424
#        202555
#        217161
#        230120
#        243178
#        255111
#        267559
#        279189
#        290255
#        301972
#
# Disc length: 4166 seconds
#
# Revision: 0
# Processed by: cddbd v1.5.2PL0 Copyright (c) Steve Scherf et al.
# Submitted via: ExactAudioCopyFreeDBPlugin 1.0
#
DISCID=2a104418
DTITLE=Various Artist - 1940s Vocal Groups Vol. 2
DYEAR=1998
DGENRE=Gospel
TTITLE0=Southern Gospel Singers - I'll Tell It Wherever You Go
TTITLE1=Southern Gospel Singers - The Gospel Mission (Jesus Said If Yo
TTITLE1=u Go)
TTITLE2=Southern Gospel Singers - I Need Jesus in My Journey
TTITLE3=Southern Gospel Singers - Anyhow
TTITLE4=Southern Gospel Singers - I Know the Lord Will Make a Way
TTITLE5=Hall Johnson Choir - Joshua Fit de Battle of Jericho
TTITLE6=Hall Johnson Choir - Great Camp Meeting in the Promised Land
TTITLE7=Hall Johnson Choir - I'm Gonna Lay Down This Heavy Load
TTITLE8=Hall Johnson Choir - I've Heard of a City Called Heaven
TTITLE9=Hall Johnson Choir - Lord I Can Ride
TTITLE10=Hall Johnson Choir - Run On Down to the Jordan River
TTITLE11=Hall Johnson Choir - I Just Can't Stay Here by Myself
TTITLE12=Hall Johnson Choir - St. Louis Blues
TTITLE13=Hall Johnson Choir - Go Down, Moses
TTITLE14=Hall Johnson Choir - Shout All Over God's Heaven
TTITLE15=Hall Johnson Choir - Let the Church Roll On
TTITLE16=Jubileers - Keep Out of the Sinner's Way
TTITLE17=Jubileers - Give Me That Old Time Religion
TTITLE18=Jubileers - Daniel Was a Witness for My Lord
TTITLE19=Jubileers - Jesus
TTITLE20=Galilee Singers - Traveling Shoes
TTITLE21=Galilee Singers - Before This Time Another Year
TTITLE22=Galilee Singers - Hush, Somebody's Calling My Name
TTITLE23=Galilee Singers - Blind Barnabus
EXTD=
EXTT0=
EXTT1=
EXTT2=
EXTT3=
EXTT4=
EXTT5=
EXTT6=
EXTT7=
EXTT8=
EXTT9=
EXTT10=
EXTT11=
EXTT12=
EXTT13=
EXTT14=
EXTT15=
EXTT16=
EXTT17=
EXTT18=
EXTT19=
EXTT20=
EXTT21=
EXTT22=
EXTT23=
PLAYORDER=
